<svg width="277" height="86" viewbox="0 0 277 86">
  <path d="M4.53 27.54L10.80 27.54L22.22 50.89L33.59 27.54L39.86 27.54L39.86 63.60L33.82 63.60L33.82 37.45L24.07 57.38L20.38 57.38L10.58 37.45L10.58 63.60L4.53 63.60L4.53 27.54ZM56.21 64.16Q52.18 64.16 49.49 62.06Q46.80 59.96 46.80 56.04Q46.80 52.12 49.46 49.85Q52.12 47.58 57.44 47.58L65.95 47.58L65.95 46.41Q65.95 44.45 65.36 43.36Q64.78 42.26 63.21 41.76Q61.64 41.26 58.73 41.26Q54.02 41.26 49.94 42.66L49.94 38.12Q51.84 37.39 54.42 36.94Q56.99 36.50 59.85
  36.50Q65.78 36.50 68.78 38.90Q71.78 41.31 71.78 46.52L71.78 63.60L66.57 63.60L66.18 60.91Q64.50 62.54 62.09 63.35Q59.68 64.16 56.21 64.16M57.83 59.79Q60.46 59.79 62.54 58.90Q64.61 58 65.95 56.38L65.95 51.73L57.55 51.73Q54.86 51.73 53.66 52.74Q52.46 53.74 52.46 55.93Q52.46 57.94 53.80 58.87Q55.14 59.79 57.83 59.79ZM88.29 64.16Q84.09 64.16 81.96 61.95Q79.83 59.74 79.83 55.70L79.83 41.82L75.91 41.82L75.91 37.06L79.83 37.06L79.83 30.95L85.88 29.10L85.88 37.06L92.94 37.06L92.54 41.82L85.88 41.82L85.88 55.37Q85.88 57.66 86.92 58.59Q87.95 59.51 90.42 59.51Q91.93 59.51 93.61 58.95L93.61 63.26Q91.42 64.16 88.29 64.16ZM107.10 64.16Q102.90 64.16 100.77 61.95Q98.64 59.74 98.64 55.70L98.64 41.82L94.72 41.82L94.72 37.06L98.64 37.06L98.64 30.95L104.69 29.10L104.69 37.06L111.74 37.06L111.35 41.82L104.69 41.82L104.69 55.37Q104.69 57.66 105.72 58.59Q106.76 59.51 109.22 59.51Q110.74 59.51 112.42 58.95L112.42 63.26Q110.23 64.16 107.10 64.16ZM149.36 32.30L137.82 32.30L137.82 27.54L166.94 27.54L166.94 32.30L155.46 32.30L155.46 63.60L149.36 63.60L149.36 32.30ZM177.07 64.16Q172.31 64.16 169.76 61.50Q167.22 58.84 167.22
  53.80L167.22 37.06L173.32 37.06L173.32 53.80Q173.32 56.77 174.78 58.17Q176.23 59.57 179.26 59.57Q181.44 59.57 183.34 58.76Q185.25 57.94 186.70 56.49L186.70 37.06L192.75 37.06L192.75 63.60L187.21 63.60L186.93 60.86Q182.73 64.16 177.07 64.16ZM200.86 37.06L206.46 37.06L206.80 40.14Q208.70 38.90 211.34 37.90Q213.97 36.89 216.54 36.50L216.54 41.14Q214.14 41.59 211.34 42.52Q208.54 43.44 206.97 44.45L206.97 63.60L200.86 63.60L200.86 37.06ZM232.94 64.16Q225.94 64.16 222.36 60.63Q218.78 57.10 218.78 50.33Q218.78 43.50 222.64 40.00Q226.50 36.50 233.28 36.50Q235.97 36.50 237.84 36.89Q239.72 37.28 241.51 38.12L241.51 42.66Q238.60 41.20 234.46 41.20Q229.70 41.20 227.32 43.33Q224.94 45.46 224.94 50.33Q224.94 55.14 227.15 57.33Q229.36 59.51 234.34 59.51Q238.32 59.51 241.57 58L241.57 62.65Q237.87 64.16 232.94 64.16ZM259.26 64.16Q245.42 64.16 245.42 50.33Q245.42 36.50 259.26 36.50Q273.14 36.50 273.14 50.33Q273.14 64.16 259.26 64.16M259.26 59.01Q263.46 59.01 265.22 56.99Q266.98 54.98 266.98 50.33Q266.98 45.74 265.22 43.72Q263.46 41.70 259.26 41.70Q255.11 41.70 253.35 43.72Q251.58 45.74 251.58 50.33Q251.58 54.98 253.35 56.99Q255.11 59.01 259.26 59.01Z"></path>
</svg>
